<?xml version="1.0" encoding="UTF-8" standalone="no"?>
<svg
   xmlns:dc="http://purl.org/dc/elements/1.1/"
   xmlns:cc="http://creativecommons.org/ns#"
   xmlns:rdf="http://www.w3.org/1999/02/22-rdf-syntax-ns#"
   xmlns:svg="http://www.w3.org/2000/svg"
   xmlns="http://www.w3.org/2000/svg"
   viewBox="0 0 2560 2560"
   height="2560"
   width="2560"
   xml:space="preserve"
   id="svg2"
   version="1.1"><metadata
     id="metadata8"><rdf:RDF><cc:Work
         rdf:about=""><dc:format>image/svg+xml</dc:format><dc:type
           rdf:resource="http://purl.org/dc/dcmitype/StillImage" /></cc:Work></rdf:RDF></metadata><defs
     id="defs6"><clipPath
       id="clipPath18"
       clipPathUnits="userSpaceOnUse"><path
         id="path16"
         d="M 0,1920 H 1920 V 0 H 0 Z" /></clipPath></defs><g
     transform="matrix(1.3333333,0,0,-1.3333333,0,2560)"
     id="g10"><g
       id="g12"><g
         clip-path="url(#clipPath18)"
         id="g14"><g
           transform="translate(1093.7266,917.1055)"
           id="g20"><path
             id="path22"
             style="fill:#ff642d;fill-opacity:1;fill-rule:nonzero;stroke:none"
             d="m 0,0 c -23.689,-0.055 -42.938,19.104 -42.994,42.795 -0.055,23.69 19.105,42.939 42.796,42.994 C 23.491,85.844 42.74,66.684 42.796,42.994 42.851,19.304 23.69,0.055 0,0 m -0.224,96.513 c -26.809,-0.062 -41.623,-10.083 -66.362,-10.14 -19.405,-0.045 -29.621,2.974 -33.713,4.581 10.749,-10.975 21.864,-13.294 27.957,-16.297 12.029,-5.93 2.727,-19.654 -8.013,-12.53 -6.651,4.411 -15.732,12.489 -28.63,17.583 -11.549,4.561 -41.133,10.628 -63.439,-5.295 23.664,5.203 42.836,2.709 43.58,-5.475 0.575,-6.333 -12.083,-9.411 -22.258,-8.597 -29.73,2.38 -41.977,17.608 -67.343,14.216 22.734,-8.913 41.045,-31.759 74.09,-31.682 14.231,0.033 21.923,5.199 31.351,9.94 11.572,5.821 18.208,-6.278 8.075,-12.509 -9.37,-5.763 -21.144,-10.011 -39.399,-9.309 -46.734,1.798 -73.29,39.15 -117.076,39.049 0,0 16.169,-3.593 23.489,-16.628 -12.624,4.802 -52.367,9.412 -83.057,-14.845 44.583,6.28 43.896,-8.933 82.257,-14.125 32.461,-4.393 54.544,10.478 58.579,-0.897 1.421,-4.004 -2.465,-8.395 -12.717,-9.623 -7.8,-0.935 -16.96,0.145 -20.984,0.524 6.864,-3.467 18.564,-8.893 41.351,-8.84 49.448,0.115 70.323,22.281 81.104,25.253 10.896,3.004 15.438,-8.912 5.105,-12.989 -9.937,-3.92 -24.553,-9.663 -35.037,-19.947 0,0 13.054,6.596 38.554,6.655 40.698,0.095 50.83,-15.384 82.785,-15.31 29.613,0.069 53.563,24.13 53.495,53.743 -0.07,29.613 -24.131,53.563 -53.744,53.494" /></g><g
           transform="translate(1108.6113,941.1113)"
           id="g24"><path
             id="path26"
             style="fill:#ff642d;fill-opacity:1;fill-rule:nonzero;stroke:none"
             d="m 0,0 c 3.681,3.779 5.95,8.939 5.937,14.632 -0.027,11.549 -9.411,20.889 -20.96,20.862 -6.512,-0.015 -6.731,7.508 -0.018,7.524 C -1.714,43.048 9.113,32.271 9.145,18.946 9.162,11.267 5.579,4.433 0,0 M -15.061,51.06 C -32.827,51.019 -47.197,36.583 -47.155,18.816 -47.114,1.047 -32.678,-13.323 -14.911,-13.282 2.858,-13.241 17.229,1.196 17.187,18.965 17.146,36.732 2.709,51.101 -15.061,51.06" /></g></g></g></g></svg>